<svg xmlns="http://www.w3.org/2000/svg" viewBox="0 0 155 150" fill="none">
  <rect x="0" y="30" width="155" height="115" rx="12" fill="#4a7a3a"/>
  <rect x="0" y="30" width="155" height="115" rx="12" fill="#4a7a3a" opacity="0.7"/>
  <ellipse cx="25" cy="90" rx="18" ry="10" fill="#3a6a2a" opacity="0.6"/>
  <ellipse cx="77" cy="68" rx="22" ry="12" fill="#3a6a2a" opacity="0.5"/>
  <ellipse cx="132" cy="118" rx="16" ry="9" fill="#3a6a2a" opacity="0.6"/>
  <ellipse cx="52" cy="122" rx="20" ry="8" fill="#3a6a2a" opacity="0.4"/>
  <ellipse cx="112" cy="50" rx="14" ry="7" fill="#6aaa4a" opacity="0.4"/>
  <path d="M14 68 Q44 63 77 69 Q110 74 141 68" stroke="#7ac85a" stroke-width="1.5" fill="none" stroke-linecap="round" opacity="0.4"/>
  <path d="M10 88 Q40 83 73 89 Q106 95 138 88" stroke="#7ac85a" stroke-width="1.5" fill="none" stroke-linecap="round" opacity="0.3"/>
  <rect x="0" y="30" width="155" height="115" rx="12" fill="none" stroke="#3a7a2a" stroke-width="2"/>
  <rect x="0" y="18" width="155" height="20" rx="6" fill="#f0f4f8" stroke="#dde3ec" stroke-width="1"/>
  <line x1="130" y1="18" x2="130" y2="145" stroke="#c8d8b8" stroke-width="2.5" stroke-linecap="round"/>
  <line x1="145" y1="18" x2="145" y2="145" stroke="#c8d8b8" stroke-width="2.5" stroke-linecap="round"/>
  <line x1="130" y1="38" x2="145" y2="38" stroke="#c8d8b8" stroke-width="2" stroke-linecap="round"/>
  <line x1="130" y1="55" x2="145" y2="55" stroke="#c8d8b8" stroke-width="2" stroke-linecap="round"/>
  <line x1="130" y1="72" x2="145" y2="72" stroke="#c8d8b8" stroke-width="2" stroke-linecap="round"/>
  <line x1="130" y1="89" x2="145" y2="89" stroke="#c8d8b8" stroke-width="2" stroke-linecap="round"/>
  <line x1="130" y1="106" x2="145" y2="106" stroke="#c8d8b8" stroke-width="2" stroke-linecap="round"/>
  <line x1="130" y1="123" x2="145" y2="123" stroke="#c8d8b8" stroke-width="2" stroke-linecap="round"/>
  <line x1="130" y1="140" x2="145" y2="140" stroke="#c8d8b8" stroke-width="2" stroke-linecap="round"/>
  <circle cx="143" cy="27" r="8" fill="#ef4444"/>
  <circle cx="143" cy="27" r="4" fill="white"/>
</svg>
