<svg width="140" height="125" viewBox="0 0 140 125" fill="none" xmlns="http://www.w3.org/2000/svg">
  <!-- vapeur -->
  <path d="M54 24 Q52 18 54 12 Q56 18 54 24" stroke="rgba(56,189,248,0.4)" stroke-width="1.8" fill="none" stroke-linecap="round"/>
  <path d="M70 20 Q68 14 70 8 Q72 14 70 20" stroke="rgba(56,189,248,0.35)" stroke-width="1.8" fill="none" stroke-linecap="round"/>
  <path d="M86 24 Q84 18 86 12 Q88 18 86 24" stroke="rgba(56,189,248,0.3)" stroke-width="1.8" fill="none" stroke-linecap="round"/>
  <!-- face avant-gauche -->
  <path d="M22 65 L22 79 L46 99 L46 85 Z" fill="#9ac4d8"/>
  <!-- face avant -->
  <path d="M46 85 L46 99 L94 99 L94 85 Z" fill="#88b8cc"/>
  <!-- face avant-droite -->
  <path d="M94 85 L94 99 L118 79 L118 65 Z" fill="#7aacc0"/>
  <!-- surface eau hexagonale -->
  <path d="M22 65 L46 45 L94 45 L118 65 L94 85 L46 85 Z" fill="#38bdf8" opacity="0.9"/>
  <!-- reflet -->
  <path d="M22 65 L38 57 L54 65 L38 73 Z" fill="rgba(255,255,255,0.15)"/>
  <!-- vague 1 -->
  <path d="M30 66 Q50 59 68 66 Q86 73 104 66 Q114 62 116 65" stroke="rgba(255,255,255,0.65)" stroke-width="1.5" fill="none" stroke-linecap="round"/>
  <!-- vague 2 -->
  <path d="M34 74 Q52 68 70 74 Q88 80 106 74" stroke="rgba(255,255,255,0.3)" stroke-width="1" fill="none" stroke-linecap="round"/>
  <!-- jets paroi gauche -->
  <circle cx="26" cy="67" r="2.5" fill="rgba(255,255,255,0.55)"/>
  <circle cx="26" cy="74" r="2" fill="rgba(255,255,255,0.4)"/>
  <!-- jets paroi droite -->
  <circle cx="114" cy="67" r="2.5" fill="rgba(255,255,255,0.55)"/>
  <circle cx="114" cy="74" r="2" fill="rgba(255,255,255,0.4)"/>
  <!-- jets coins -->
  <circle cx="34" cy="56" r="2" fill="rgba(255,255,255,0.4)"/>
  <circle cx="106" cy="56" r="2" fill="rgba(255,255,255,0.4)"/>
  <!-- bulles -->
  <circle cx="52" cy="74" r="2" fill="rgba(255,255,255,0.45)"/>
  <circle cx="68" cy="68" r="1.5" fill="rgba(255,255,255,0.4)"/>
  <circle cx="84" cy="75" r="2" fill="rgba(255,255,255,0.4)"/>
  <circle cx="96" cy="70" r="1.5" fill="rgba(255,255,255,0.35)"/>
  <!-- statut -->
  <circle cx="126" cy="44" r="6" fill="#10b981"/>
  <circle cx="126" cy="44" r="3" fill="white"/>
</svg>
