<svg width="140" height="125" viewBox="0 0 140 125" fill="none" xmlns="http://www.w3.org/2000/svg">
  <!-- faces -->
  <path d="M22 65 L22 79 L46 99 L46 85 Z" fill="#3a6a3a"/>
  <path d="M46 85 L46 99 L94 99 L94 85 Z" fill="#345e34"/>
  <path d="M94 85 L94 99 L118 79 L118 65 Z" fill="#2e5430"/>
  <!-- surface eau verte -->
  <path d="M22 65 L46 45 L94 45 L118 65 L94 85 L46 85 Z" fill="#4a7a3a" opacity="0.95"/>
  <!-- algues -->
  <ellipse cx="50" cy="68" rx="9" ry="4" fill="#3a6a2a" opacity="0.6"/>
  <ellipse cx="76" cy="60" rx="7" ry="3" fill="#3a6a2a" opacity="0.5"/>
  <ellipse cx="94" cy="72" rx="8" ry="3.5" fill="#3a6a2a" opacity="0.55"/>
  <ellipse cx="64" cy="78" rx="5" ry="2.5" fill="#3a6a2a" opacity="0.45"/>
  <!-- vague quasi invisible -->
  <path d="M30 66 Q50 63 68 66 Q86 69 104 66" stroke="rgba(255,255,255,0.08)" stroke-width="1" fill="none" stroke-linecap="round"/>
  <!-- jets quasi invisibles -->
  <circle cx="26" cy="67" r="2.5" fill="rgba(255,255,255,0.12)"/>
  <circle cx="114" cy="67" r="2.5" fill="rgba(255,255,255,0.12)"/>
  <!-- statut -->
  <circle cx="126" cy="44" r="6" fill="#ef4444"/>
  <circle cx="126" cy="44" r="3" fill="white"/>
</svg>
