<svg width="120" height="90" viewBox="0 0 120 90" fill="none" xmlns="http://www.w3.org/2000/svg">
  <!-- deck -->
  <path d="M10 52 L60 28 L110 52 L60 76 Z" fill="#e8f0f8" stroke="#dde3ec" stroke-width="0.5"/>
  <!-- face gauche -->
  <path d="M10 52 L10 64 L60 88 L60 76 Z" fill="#3a6a3a"/>
  <!-- face droite -->
  <path d="M110 52 L110 64 L60 88 L60 76 Z" fill="#345e34"/>
  <!-- eau verte -->
  <path d="M10 52 L60 28 L110 52 L60 76 Z" fill="#4a7a3a" opacity="0.95"/>
  <!-- taches algues -->
  <ellipse cx="38" cy="56" rx="8" ry="4" fill="#3a6a2a" opacity="0.6"/>
  <ellipse cx="70" cy="48" rx="6" ry="3" fill="#3a6a2a" opacity="0.5"/>
  <ellipse cx="85" cy="62" rx="7" ry="3.5" fill="#3a6a2a" opacity="0.55"/>
  <ellipse cx="52" cy="68" rx="5" ry="2.5" fill="#3a6a2a" opacity="0.45"/>
  <!-- vague très atténuée -->
  <path d="M18 54 Q35 51 52 54 Q69 57 86 54" stroke="rgba(255,255,255,0.15)" stroke-width="1" fill="none" stroke-linecap="round"/>
  <!-- échelle quasi invisible -->
  <line x1="88" y1="42" x2="88" y2="58" stroke="rgba(255,255,255,0.3)" stroke-width="1.5" stroke-linecap="round"/>
  <line x1="93" y1="45" x2="93" y2="61" stroke="rgba(255,255,255,0.3)" stroke-width="1.5" stroke-linecap="round"/>
  <line x1="88" y1="47" x2="93" y2="49" stroke="rgba(255,255,255,0.25)" stroke-width="1" stroke-linecap="round"/>
  <line x1="88" y1="53" x2="93" y2="55" stroke="rgba(255,255,255,0.25)" stroke-width="1" stroke-linecap="round"/>
  <path d="M88 42 Q87 38 89 37" stroke="rgba(255,255,255,0.3)" stroke-width="1.5" fill="none" stroke-linecap="round"/>
  <path d="M93 45 Q94 41 92 40" stroke="rgba(255,255,255,0.3)" stroke-width="1.5" fill="none" stroke-linecap="round"/>
  <!-- statut -->
  <circle cx="106" cy="32" r="5" fill="#ef4444"/>
  <circle cx="106" cy="32" r="2.5" fill="white"/>
</svg>
