<svg width="120" height="90" viewBox="0 0 120 90" fill="none" xmlns="http://www.w3.org/2000/svg">
  <!-- deck -->
  <path d="M10 52 L60 28 L110 52 L60 76 Z" fill="#e8f0f8" stroke="#dde3ec" stroke-width="0.5"/>
  <!-- face gauche -->
  <path d="M10 52 L10 64 L60 88 L60 76 Z" fill="#c5d8e8"/>
  <!-- face droite -->
  <path d="M110 52 L110 64 L60 88 L60 76 Z" fill="#b8cedd"/>
  <!-- eau dessus -->
  <path d="M10 52 L60 28 L110 52 L60 76 Z" fill="#38bdf8" opacity="0.9"/>
  <!-- reflet -->
  <path d="M10 52 L30 42 L50 52 L30 62 Z" fill="rgba(255,255,255,0.18)"/>
  <!-- vague 1 -->
  <path d="M18 54 Q35 48 52 54 Q69 60 86 54 Q100 49 106 53" stroke="rgba(255,255,255,0.65)" stroke-width="1.5" fill="none" stroke-linecap="round"/>
  <!-- vague 2 -->
  <path d="M22 62 Q38 57 54 62 Q70 67 86 62" stroke="rgba(255,255,255,0.35)" stroke-width="1" fill="none" stroke-linecap="round"/>
  <!-- échelle -->
  <line x1="88" y1="42" x2="88" y2="58" stroke="rgba(255,255,255,0.8)" stroke-width="1.5" stroke-linecap="round"/>
  <line x1="93" y1="45" x2="93" y2="61" stroke="rgba(255,255,255,0.8)" stroke-width="1.5" stroke-linecap="round"/>
  <line x1="88" y1="47" x2="93" y2="49" stroke="rgba(255,255,255,0.7)" stroke-width="1" stroke-linecap="round"/>
  <line x1="88" y1="53" x2="93" y2="55" stroke="rgba(255,255,255,0.7)" stroke-width="1" stroke-linecap="round"/>
  <path d="M88 42 Q87 38 89 37" stroke="rgba(255,255,255,0.8)" stroke-width="1.5" fill="none" stroke-linecap="round"/>
  <path d="M93 45 Q94 41 92 40" stroke="rgba(255,255,255,0.8)" stroke-width="1.5" fill="none" stroke-linecap="round"/>
  <!-- statut -->
  <circle cx="106" cy="32" r="5" fill="#10b981"/>
  <circle cx="106" cy="32" r="2.5" fill="white"/>
</svg>
