<svg width="120" height="90" viewBox="0 0 120 90" fill="none" xmlns="http://www.w3.org/2000/svg">
  <!-- deck -->
  <path d="M10 52 L60 28 L110 52 L60 76 Z" fill="#e8f0f8" stroke="#dde3ec" stroke-width="0.5"/>
  <!-- face gauche -->
  <path d="M10 52 L10 64 L60 88 L60 76 Z" fill="#4a8a90"/>
  <!-- face droite -->
  <path d="M110 52 L110 64 L60 88 L60 76 Z" fill="#407e84"/>
  <!-- eau bleu-vert trouble -->
  <path d="M10 52 L60 28 L110 52 L60 76 Z" fill="#3a9aaa" opacity="0.9"/>
  <!-- légère teinte verte naissante -->
  <path d="M10 52 L60 28 L110 52 L60 76 Z" fill="rgba(180,210,180,0.18)"/>
  <!-- particules -->
  <circle cx="35" cy="54" r="1.5" fill="rgba(255,255,255,0.35)"/>
  <circle cx="58" cy="48" r="1" fill="rgba(255,255,255,0.3)"/>
  <circle cx="74" cy="58" r="1.5" fill="rgba(255,255,255,0.3)"/>
  <circle cx="88" cy="52" r="1" fill="rgba(255,255,255,0.35)"/>
  <circle cx="46" cy="66" r="1.5" fill="rgba(255,255,255,0.25)"/>
  <!-- vague atténuée -->
  <path d="M18 54 Q35 49 52 54 Q69 59 86 54" stroke="rgba(255,255,255,0.35)" stroke-width="1.2" fill="none" stroke-linecap="round"/>
  <!-- échelle -->
  <line x1="88" y1="42" x2="88" y2="58" stroke="rgba(255,255,255,0.45)" stroke-width="1.5" stroke-linecap="round"/>
  <line x1="93" y1="45" x2="93" y2="61" stroke="rgba(255,255,255,0.45)" stroke-width="1.5" stroke-linecap="round"/>
  <line x1="88" y1="47" x2="93" y2="49" stroke="rgba(255,255,255,0.35)" stroke-width="1" stroke-linecap="round"/>
  <line x1="88" y1="53" x2="93" y2="55" stroke="rgba(255,255,255,0.35)" stroke-width="1" stroke-linecap="round"/>
  <path d="M88 42 Q87 38 89 37" stroke="rgba(255,255,255,0.45)" stroke-width="1.5" fill="none" stroke-linecap="round"/>
  <path d="M93 45 Q94 41 92 40" stroke="rgba(255,255,255,0.45)" stroke-width="1.5" fill="none" stroke-linecap="round"/>
  <!-- statut -->
  <circle cx="106" cy="32" r="5" fill="#f59e0b"/>
  <circle cx="106" cy="32" r="2.5" fill="white"/>
</svg>
